<svg xmlns="http://www.w3.org/2000/svg"  viewBox="0 0 100 100" width="100px" height="100px"><path fill="#78ccd3" d="M44.098,83.499c-18.959-3.267-31.643-21.932-27.22-41.19c3.735-16.265,19.092-27.524,35.729-26.211 c19.809,1.563,33.86,19.474,31.037,38.814C80.93,73.493,63.299,87.23,43.062,83.304c16.266-0.657,27.861-17.412,29.697-29.981 c1.909-13.073-7.581-25.18-20.964-26.254c-11.328-0.909-21.8,6.827-24.245,17.925c-2.487,11.292,3.641,22.201,13.694,26.311 c2.562,1.047,4.098,3.685,3.698,6.424L44.098,83.499z"/><path fill="#ffd0b8" d="M50,85c-19.299,0-35-15.701-35-35s15.701-35,35-35s35,15.701,35,35S69.299,85,50,85z M50,17 c-18.196,0-33,14.804-33,33s14.804,33,33,33s33-14.804,33-33S68.196,17,50,17z"/><path fill="#1f212b" d="M49.981,84.976c-1.955,0-3.929-0.158-5.908-0.477c-0.048-0.001-0.097-0.006-0.145-0.014 c-0.346-0.06-0.69-0.125-1.033-0.194c-0.008-0.001-0.016-0.003-0.023-0.004c-0.012-0.002-0.024-0.005-0.036-0.008 c-8.918-1.838-16.877-7.203-21.963-14.846c-5.394-8.104-7.158-17.815-4.97-27.347c3.844-16.735,19.644-28.33,36.782-26.984 c9.802,0.773,18.563,5.412,24.667,13.062c6.021,7.544,8.674,17.347,7.28,26.894c-1.375,9.417-6.619,17.98-14.389,23.492 C64.282,82.779,57.269,84.976,49.981,84.976z M49.969,25.996c0.632,0,1.267,0.025,1.905,0.077 c6.714,0.539,12.713,3.723,16.892,8.966c4.121,5.171,5.938,11.888,4.982,18.429C72.193,64.12,63.472,78.542,50.283,82.974 c6.768-0.061,13.268-2.128,18.804-6.056c7.326-5.198,12.271-13.271,13.567-22.15c1.313-9.001-1.188-18.244-6.865-25.357 c-5.756-7.212-14.017-11.586-23.262-12.315c-16.126-1.281-31.052,9.663-34.675,25.438c-2.064,8.99-0.4,18.15,4.686,25.792 c4.85,7.287,12.133,12.217,20.603,13.975c0.041-0.002,0.082-0.004,0.123-0.006l0.688-4.709c0.332-2.273-0.937-4.475-3.086-5.354 c-10.812-4.419-16.822-15.965-14.292-27.452C28.994,33.788,38.863,25.996,49.969,25.996z M49.968,27.996 c-10.179,0-19.223,7.14-21.441,17.213c-2.32,10.534,3.188,21.12,13.095,25.17c3.003,1.227,4.774,4.309,4.309,7.494l-0.616,4.228 c14.82-2.045,24.817-17.698,26.456-28.923c0.888-6.083-0.734-12.083-4.568-16.893c-3.83-4.807-9.33-7.726-15.487-8.22 C51.129,28.019,50.547,27.996,49.968,27.996z"/><path fill="#1f212b" d="M35.428,74.998c-0.088,0-0.176-0.022-0.256-0.07c-5.483-3.269-9.794-8.327-12.14-14.243 c-0.102-0.256,0.023-0.547,0.28-0.649c0.256-0.101,0.547,0.024,0.649,0.281c2.265,5.711,6.428,10.596,11.722,13.752 c0.237,0.142,0.315,0.449,0.174,0.686C35.764,74.911,35.598,74.998,35.428,74.998z"/><path fill="#1f212b" d="M22.244,57c-0.228,0-0.434-0.156-0.487-0.387C21.255,54.457,21,52.231,21,50 c0-15.991,13.01-29,29-29c9.37,0,18.21,4.564,23.647,12.21c0.16,0.225,0.107,0.537-0.117,0.697 c-0.225,0.161-0.536,0.108-0.697-0.118C67.583,26.407,59.047,22,50,22c-15.439,0-28,12.561-28,28c0,2.155,0.246,4.304,0.731,6.387 c0.063,0.269-0.104,0.538-0.374,0.6C22.319,56.996,22.281,57,22.244,57z"/><path fill="#1f212b" d="M76.504,40c-0.199,0-0.387-0.119-0.465-0.315c-0.399-1.007-0.861-1.999-1.373-2.947 c-0.131-0.243-0.04-0.546,0.203-0.677c0.241-0.132,0.546-0.041,0.678,0.203c0.529,0.983,1.008,2.01,1.422,3.053 c0.102,0.257-0.023,0.547-0.28,0.649C76.628,39.989,76.565,40,76.504,40z"/><path fill="#1f212b" d="M73.24,67c-0.101,0-0.202-0.03-0.29-0.093c-0.225-0.16-0.277-0.472-0.117-0.697 C76.213,61.458,78,55.853,78,50c0-2.501-0.329-4.98-0.979-7.369c-0.072-0.267,0.085-0.542,0.352-0.614 c0.27-0.074,0.541,0.085,0.613,0.351C78.658,44.842,79,47.41,79,50c0,6.062-1.851,11.868-5.353,16.79 C73.55,66.927,73.396,67,73.24,67z"/></svg>